<svg xmlns="http://www.w3.org/2000/svg" class="icon icon-tabler icon-tabler-arrows-random" width="250px" height="250px" viewBox="0 0 24 24" stroke-width="1.62" stroke="rgba(255, 70, 150, 1)" fill="none" stroke-linecap="round" stroke-linejoin="round"><defs><filter id="sharpness-filter219" x="0" y="0" width="100%" height="100%"><feConvolveMatrix kernelMatrix="0 -1 0 -1 5 -1 0 -1 0"/></filter><filter id="smoothness-filter220" x="0" y="0" width="100%" height="100%"><feConvolveMatrix kernelMatrix="-1 -1 -1 -1 -7 -1 -1 -1 -1"/></filter></defs><circle cx="50%" cy="50%" r="50%" stroke="none" stroke-width="0" fill="rgba(255, 255, 255, 1)"/><g transform="translate(1.68, 1.68) scale(0.86)" style="filter: url(&quot;#sharpness-filter219&quot;) url(&quot;#smoothness-filter220&quot;);"><g transform="rotate(46.8 12 12)"><path stroke="none" d="M0 0h24v24H0z" fill="none"/><path d="M20 21.004h-4v-4"/><path d="M16 21.004l5 -5"/><path d="M6.5 9.504l-3.5 -2l2 -3.504"/><path d="M3 7.504l6.83 -1.87"/><path d="M4 16.004l4 -1l1 4"/><path d="M8 15.004l-3.5 6"/><path d="M21 5.004l-.5 4l-4 -.5"/><path d="M20.5 9.004l-4.5 -5.5"/></g></g>
  
  
  
  
  
  
  
  
  
</svg>